<?xml version="1.0" encoding="UTF-8"?>
<!DOCTYPE svg PUBLIC "-//W3C//DTD SVG 1.1//EN" "http://www.w3.org/Graphics/SVG/1.1/DTD/svg11.dtd">
<!-- Creator: CorelDRAW X8 -->
<svg xmlns="http://www.w3.org/2000/svg" xml:space="preserve" width="16px" height="15px" version="1.1" style="shape-rendering:geometricPrecision; text-rendering:geometricPrecision; image-rendering:optimizeQuality; fill-rule:evenodd; clip-rule:evenodd"
viewBox="0 0 16 15"
 xmlns:xlink="http://www.w3.org/1999/xlink">
 <defs>
  <style type="text/css">
   <![CDATA[
    .fil2 {fill:#212121}
    .fil0 {fill:#2196F3}
    .fil1 {fill:#FEFEFE}
   ]]>
  </style>
 </defs>
 <g id="Слой_x0020_1">
  <metadata id="CorelCorpID_0Corel-Layer"/>
  <path class="fil0" d="M2 0l12 0c1,0 2,1 2,2l0 11c0,1 -1,2 -2,2l-12 0c-1,0 -2,-1 -2,-2l0 -11c0,-1 1,-2 2,-2z"/>
  <path class="fil1" d="M3 8l3 2c2,-2 4,-4 7,-6l1 1c-3,2 -5,5 -8,7l-4 -3 1 -1 0 0z"/>
  <path class="fil2" d="M14 2l0 11 -12 0 0 -11 12 0zm0 -2l-12 0c-1,0 -2,1 -2,2l0 11c0,1 1,2 2,2l12 0c1,0 2,-1 2,-2l0 -11c0,-1 -1,-2 -2,-2z"/>
 </g>
</svg>
